<svg width="110" height="110" viewBox="0 0 110 110" fill="none" xmlns="http://www.w3.org/2000/svg">
<g clip-path="url(#clip0_83_230)" filter="url(#filter0_n_83_230)">
<path d="M55 0C85.3757 0 110 24.6243 110 55C110 85.3757 85.3757 110 55 110C24.6243 110 0 85.3757 0 55C0 24.6243 24.6243 0 55 0ZM73.7344 77.1465C58.2242 77.1465 42.7133 78.0113 27.2031 79.7402C26.0954 79.8637 24.9866 79.9917 23.8789 80.124V83.6963C24.9867 83.8286 26.0954 83.9566 27.2031 84.0801C42.7133 85.809 58.2242 86.6738 73.7344 86.6738C78.1657 86.6738 82.598 86.0388 87.0293 84.7686C88.1369 84.451 89.245 84.0931 90.3525 83.6963V80.124C89.2449 79.7271 88.137 79.3693 87.0293 79.0518C82.598 77.7815 78.1657 77.1466 73.7344 77.1465ZM85.9775 22.9629C85.9101 24.481 85.7018 25.9773 85.4443 27.4512C83.1104 40.8593 75.3118 51.9713 64.3975 58.4131C64.0971 58.596 63.7913 58.7786 63.4814 58.959C52.9353 65.3735 39.7589 66.8971 27.8076 61.0391C26.4574 60.3866 25.1262 59.6698 23.8789 58.8154C24.8439 59.9858 25.9643 61.0529 27.1504 62.0527C37.3891 71.2036 54.632 71.9717 66.6553 64.4561C67.0093 64.2532 67.3583 64.0458 67.7012 63.8369C80.4006 56.5341 87.9547 41.3716 86.6494 27.5088C86.5286 25.9741 86.3322 24.4453 85.9775 22.9629ZM64.125 30.7793C61.6697 21.8852 52.4693 16.6652 43.5752 19.1201C34.6809 21.5754 29.4607 30.7766 31.916 39.6709C34.3714 48.5648 43.5718 53.785 52.4658 51.3301L52.8799 51.209C61.5213 48.5864 66.5419 39.5346 64.125 30.7793ZM45.2646 25.2432C50.4853 23.6931 56.7774 26.5535 58.959 32.2051C60.8034 36.6183 59.7717 42.6081 55.501 46.5527C54.4483 47.5331 53.2153 48.3781 51.832 49.0342C50.3082 49.1806 48.8175 49.0876 47.4111 48.7861C41.7213 47.5912 37.7629 42.9787 37.082 38.2441C36.0554 32.2739 39.9883 26.591 45.2646 25.2432Z" fill="url(#paint0_linear_83_230)"/>
</g>
<defs>
<filter id="filter0_n_83_230" x="0" y="0" width="110" height="110" filterUnits="userSpaceOnUse" color-interpolation-filters="sRGB">
<feFlood flood-opacity="0" result="BackgroundImageFix"/>
<feBlend mode="normal" in="SourceGraphic" in2="BackgroundImageFix" result="shape"/>
<feTurbulence type="fractalNoise" baseFrequency="1.25 1.25" stitchTiles="stitch" numOctaves="3" result="noise" seed="9694" />
<feColorMatrix in="noise" type="luminanceToAlpha" result="alphaNoise" />
<feComponentTransfer in="alphaNoise" result="coloredNoise1">
<feFuncA type="discrete" tableValues="1 1 1 1 1 1 1 1 1 1 1 1 1 1 1 1 1 1 1 1 1 1 1 1 1 1 1 1 1 1 1 1 1 1 1 1 1 1 1 1 1 1 1 1 1 1 1 1 1 1 1 0 0 0 0 0 0 0 0 0 0 0 0 0 0 0 0 0 0 0 0 0 0 0 0 0 0 0 0 0 0 0 0 0 0 0 0 0 0 0 0 0 0 0 0 0 0 0 0 0 "/>
</feComponentTransfer>
<feComposite operator="in" in2="shape" in="coloredNoise1" result="noise1Clipped" />
<feFlood flood-color="rgba(0, 0, 0, 0.25)" result="color1Flood" />
<feComposite operator="in" in2="noise1Clipped" in="color1Flood" result="color1" />
<feMerge result="effect1_noise_83_230">
<feMergeNode in="shape" />
<feMergeNode in="color1" />
</feMerge>
</filter>
<linearGradient id="paint0_linear_83_230" x1="55" y1="0" x2="55" y2="110" gradientUnits="userSpaceOnUse">
<stop stop-color="white"/>
<stop offset="1" stop-color="#BBBBBB"/>
</linearGradient>
<clipPath id="clip0_83_230">
<rect width="110" height="110" fill="white"/>
</clipPath>
</defs>
</svg>
